<?xml version="1.0" standalone="no"?>
<!DOCTYPE svg PUBLIC "-//W3C//DTD SVG 20010904//EN"
 "http://www.w3.org/TR/2001/REC-SVG-20010904/DTD/svg10.dtd">
<svg version="1.0" xmlns="http://www.w3.org/2000/svg"
 width="626.000000pt" height="230.000000pt" viewBox="0 0 626.000000 230.000000"
 preserveAspectRatio="xMidYMid meet">

<g transform="translate(0.000000,230.000000) scale(0.100000,-0.100000)"
fill="#000000" stroke="none">
<path d="M760 1841 c11 -8 5 -11 -27 -11 -24 0 -43 -3 -43 -6 0 -3 14 -17 30
-31 17 -13 30 -32 30 -40 0 -11 4 -10 18 6 12 15 21 18 32 11 13 -8 13 -10 -2
-10 -17 0 -35 -36 -24 -47 3 -4 6 1 6 11 0 32 35 14 36 -19 2 -59 3 -62 19
-41 8 11 15 15 15 9 0 -6 -9 -22 -20 -36 -11 -14 -20 -39 -20 -56 0 -18 -7
-34 -17 -40 -10 -6 -13 -10 -8 -10 21 0 45 27 45 52 0 14 4 29 10 32 6 3 9 -3
7 -14 -1 -11 2 -20 7 -20 5 -1 10 10 11 23 0 14 -3 22 -7 20 -11 -7 -10 -1 8
35 11 22 14 45 10 69 -4 26 -2 32 4 22 5 -8 10 -10 10 -5 0 19 -29 53 -62 73
-36 22 -94 41 -68 23z m74 -54 c8 -12 17 -33 19 -47 2 -14 2 -19 0 -12 -3 6
-13 12 -24 12 -10 0 -19 5 -19 11 0 5 6 7 13 3 6 -4 3 2 -7 14 -14 17 -16 22
-5 23 8 0 4 4 -8 9 -13 5 -23 14 -23 20 0 16 37 -6 54 -33z m-99 23 c3 -5 2
-10 -4 -10 -5 0 -13 5 -16 10 -3 6 -2 10 4 10 5 0 13 -4 16 -10z"/>
<path d="M1205 1828 c-5 -14 -85 -358 -85 -364 0 -2 -10 -5 -22 -5 -21 -1 -21
-2 -3 -6 46 -11 73 -70 46 -99 -5 -5 -11 -18 -13 -29 -2 -14 -14 -22 -38 -26
l-35 -6 38 -2 c28 -1 39 4 43 17 3 9 10 25 15 34 13 25 11 82 -3 97 -20 19 22
48 90 61 31 6 64 13 73 16 12 3 24 -16 49 -81 18 -47 37 -88 42 -92 25 -15 24
19 -3 87 -16 41 -29 80 -29 87 0 6 14 16 30 22 44 15 38 33 -11 29 l-40 -3
-56 138 c-52 127 -76 161 -88 125z m66 -170 c24 -65 34 -105 28 -109 -17 -10
-120 -31 -126 -26 -3 3 7 60 23 126 15 67 30 119 33 116 2 -3 22 -51 42 -107z"/>
<path d="M2003 1832 c-21 -13 -33 -62 -33 -136 l0 -72 -35 -13 c-19 -7 -35
-19 -35 -27 0 -17 1 -17 36 -4 37 15 44 2 44 -90 0 -95 10 -152 24 -147 6 2
11 10 10 18 -1 8 -4 66 -8 130 l-7 116 61 23 c58 22 78 35 67 47 -3 3 -31 -5
-63 -16 -46 -18 -59 -19 -65 -9 -12 19 -11 90 2 127 9 27 16 32 38 29 20 -2
28 -11 36 -35 11 -38 25 -43 25 -9 0 50 -59 92 -97 68z"/>
<path d="M1710 1744 l0 -85 -36 -15 c-19 -8 -33 -20 -31 -27 5 -13 10 -13 43
-3 21 7 22 4 29 -121 8 -157 8 -157 20 -155 6 2 10 59 10 148 l0 146 48 25
c27 13 51 22 54 20 2 -3 8 -78 11 -166 4 -97 11 -161 17 -161 10 0 11 13 7
224 -2 116 -3 124 -23 129 -11 3 -41 -3 -66 -14 -24 -10 -47 -19 -49 -19 -2 0
-4 36 -4 80 0 64 -3 80 -15 80 -12 0 -15 -16 -15 -86z"/>
<path d="M1850 1810 c0 -13 5 -20 13 -17 6 2 12 10 12 17 0 7 -6 15 -12 18 -8
2 -13 -5 -13 -18z"/>
<path d="M2136 1822 c-2 -4 -1 -14 4 -21 10 -17 31 -5 23 14 -6 16 -19 20 -27
7z"/>
<path d="M2452 1816 c1 -10 8 -17 13 -17 15 1 12 24 -3 29 -9 3 -13 -2 -10
-12z"/>
<path d="M2782 1588 c2 -154 7 -243 13 -243 6 0 11 89 13 243 2 212 0 242 -13
242 -13 0 -15 -30 -13 -242z"/>
<path d="M5590 1773 c17 -8 11 -41 -7 -45 -10 -2 -23 3 -30 11 -9 13 -10 10
-6 -12 5 -25 23 -39 23 -18 0 5 9 11 21 14 15 4 20 12 17 28 -2 12 -9 24 -16
25 -7 1 -8 0 -2 -3z"/>
<path d="M5568 1753 c7 -3 16 -2 19 1 4 3 -2 6 -13 5 -11 0 -14 -3 -6 -6z"/>
<path d="M890 1710 c-2 -14 -4 -37 -5 -51 -1 -15 -5 -34 -8 -43 -4 -10 -3 -14
3 -11 13 8 23 65 17 101 -4 27 -4 28 -7 4z"/>
<path d="M791 1704 c0 -11 3 -14 6 -6 3 7 2 16 -1 19 -3 4 -6 -2 -5 -13z"/>
<path d="M1446 1692 c-3 -6 -3 -85 1 -176 4 -119 10 -166 18 -166 8 0 14 30
17 94 7 131 46 191 134 205 56 9 56 31 0 31 -37 0 -52 -6 -82 -32 -20 -17 -41
-43 -47 -57 -11 -24 -12 -20 -15 34 -3 59 -14 86 -26 67z"/>
<path d="M2144 1528 c7 -155 14 -206 28 -181 3 4 3 86 0 181 -4 145 -7 172
-20 172 -13 0 -14 -22 -8 -172z"/>
<path d="M2284 1686 c-44 -19 -68 -87 -69 -186 0 -100 23 -144 79 -148 23 -2
47 3 62 13 33 21 64 73 64 108 0 41 -26 34 -33 -9 -13 -76 -88 -112 -123 -59
-35 54 -26 185 18 240 24 31 34 26 48 -25 13 -48 30 -52 30 -7 0 34 -19 79
-35 83 -5 2 -24 -3 -41 -10z"/>
<path d="M2462 1523 c2 -110 7 -178 13 -178 14 0 18 89 10 233 -11 186 -26
149 -23 -55z"/>
<path d="M2600 1652 c-61 -60 -97 -203 -68 -266 27 -60 81 -37 138 59 l35 59
3 -70 c3 -70 14 -97 31 -79 6 6 6 27 0 55 -5 25 -13 94 -18 154 -6 72 -13 111
-22 117 -29 18 -62 9 -99 -29z m78 -4 c7 -7 12 -33 12 -58 0 -87 -90 -229
-126 -199 -34 28 -1 176 53 239 27 32 42 37 61 18z"/>
<path d="M600 1656 c0 -8 7 -21 15 -30 9 -8 14 -18 13 -21 -4 -8 42 -55 54
-55 5 0 8 20 7 45 -2 38 -6 45 -24 45 -11 0 -31 7 -43 16 -19 13 -22 13 -22 0z
m71 -61 c6 17 8 16 8 -9 1 -24 -1 -27 -14 -16 -8 7 -14 20 -14 29 1 11 3 10 7
-4 l5 -20 8 20z"/>
<path d="M797 1663 c-4 -3 -7 -27 -7 -51 0 -57 7 -52 14 11 6 47 5 52 -7 40z"/>
<path d="M730 1642 c-10 -5 -17 -23 -18 -52 -2 -33 0 -41 7 -30 7 10 11 11 11
3 0 -19 18 -16 24 5 22 79 17 92 -24 74z m30 -12 c0 -5 -2 -10 -4 -10 -3 0 -8
5 -11 10 -3 6 -1 10 4 10 6 0 11 -4 11 -10z"/>
<path d="M4355 1638 c-11 -6 -31 -18 -45 -26 l-25 -16 25 -7 c51 -14 69 -10
85 21 8 16 15 31 15 35 0 9 -34 5 -55 -7z"/>
<path d="M4462 1637 c-14 -16 -6 -27 20 -27 13 0 18 6 16 17 -4 22 -22 27 -36
10z"/>
<path d="M4534 1629 c-7 -12 15 -31 31 -26 6 2 11 11 13 20 4 19 -32 24 -44 6z"/>
<path d="M4621 1626 c-13 -15 -4 -26 21 -26 21 0 24 25 4 33 -8 3 -19 0 -25
-7z"/>
<path d="M4697 1623 c-13 -12 -7 -23 13 -23 11 0 20 7 20 15 0 15 -21 21 -33
8z"/>
<path d="M4774 1619 c-3 -6 -2 -15 2 -19 12 -12 38 5 30 19 -9 14 -23 14 -32
0z"/>
<path d="M4842 1608 c5 -15 28 -18 29 -3 0 6 -7 12 -17 13 -10 3 -15 -1 -12
-10z"/>
<path d="M4907 1614 c-9 -10 2 -24 19 -24 8 0 14 7 14 15 0 15 -21 21 -33 9z"/>
<path d="M4430 1566 c0 -8 -8 -17 -17 -19 -16 -4 -16 -5 1 -6 11 0 27 -8 37
-17 10 -9 19 -11 23 -5 4 5 -3 13 -15 16 -14 5 -19 13 -16 26 3 10 1 19 -4 19
-5 0 -9 -6 -9 -14z"/>
<path d="M4493 1573 c15 -4 16 -7 6 -20 -10 -12 -10 -16 2 -24 8 -5 21 -8 29
-8 10 1 9 3 -3 6 -14 4 -17 11 -13 29 5 20 3 24 -16 23 -18 -1 -19 -2 -5 -6z"/>
<path d="M4915 1560 c11 -5 34 -9 50 -9 17 0 39 4 50 9 14 6 -2 9 -50 9 -48 0
-64 -3 -50 -9z"/>
<path d="M4260 1551 c-111 -6 -107 -9 38 -27 26 -3 54 -11 62 -17 13 -10 13
-10 1 6 -11 14 -11 20 -1 32 7 8 11 14 9 13 -2 -1 -51 -4 -109 -7z"/>
<path d="M723 1533 c9 -2 25 -2 35 0 9 3 1 5 -18 5 -19 0 -27 -2 -17 -5z"/>
<path d="M4631 1521 c-23 -18 -22 -41 2 -41 7 0 6 4 -3 10 -13 8 -12 11 5 24
27 21 34 20 64 -6 14 -13 19 -15 12 -5 -12 15 -11 17 10 18 l24 1 -25 8 c-41
13 -64 11 -89 -9z"/>
<path d="M5419 1523 c-13 -16 -12 -17 4 -4 9 7 17 15 17 17 0 8 -8 3 -21 -13z"/>
<path d="M316 1501 c-3 -5 1 -11 8 -14 8 -3 17 -1 19 6 3 10 2 -55 -2 -76 -2
-15 -46 -25 -64 -15 -17 9 -17 7 -6 -13 15 -28 49 -58 67 -59 26 0 71 34 83
62 21 50 -24 118 -78 118 -12 0 -24 -4 -27 -9z"/>
<path d="M4585 1491 c-3 -12 -10 -21 -14 -21 -5 0 -14 -13 -21 -29 -7 -18 -21
-31 -33 -33 -19 -3 -19 -4 5 -9 15 -4 25 -3 23 1 -3 4 7 20 22 36 15 16 26 29
24 29 -1 0 1 8 5 18 3 10 4 20 1 23 -3 3 -8 -4 -12 -15z"/>
<path d="M4417 1493 c-9 -2 -15 -9 -12 -14 9 -14 22 -11 29 6 3 8 4 14 3 14
-1 -1 -10 -3 -20 -6z"/>
<path d="M4493 1473 c9 -2 25 -2 35 0 9 3 1 5 -18 5 -19 0 -27 -2 -17 -5z"/>
<path d="M4676 1458 c44 -33 53 -36 19 -6 -16 15 -34 28 -39 28 -5 0 4 -10 20
-22z"/>
<path d="M4375 1461 c-3 -5 -2 -12 3 -15 5 -3 9 1 9 9 0 17 -3 19 -12 6z"/>
<path d="M4437 1451 c-3 -11 1 -22 8 -24 8 -4 10 3 7 19 -5 29 -8 30 -15 5z"/>
<path d="M4760 1457 c12 -16 12 -20 -1 -28 -8 -5 -9 -9 -4 -9 6 0 16 4 23 8 9
6 7 13 -10 28 -20 17 -21 17 -8 1z"/>
<path d="M4648 1404 l53 -49 -23 -28 -23 -28 -48 37 -47 37 -25 -27 c-13 -14
-20 -26 -15 -26 5 0 16 10 24 22 l15 21 45 -34 c28 -21 44 -40 41 -49 -5 -15
9 2 74 89 28 39 30 42 7 22 l-26 -25 -33 30 c-17 17 -41 36 -52 44 -11 7 4 -9
33 -36z"/>
<path d="M5400 1440 c-8 -5 -12 -12 -9 -15 4 -3 12 1 19 10 14 17 11 19 -10 5z"/>
<path d="M5870 1426 c0 -2 8 -10 18 -17 15 -13 16 -12 3 4 -13 16 -21 21 -21
13z"/>
<path d="M5906 1377 c3 -10 9 -15 12 -12 3 3 0 11 -7 18 -10 9 -11 8 -5 -6z"/>
<path d="M4488 1373 c7 -3 16 -2 19 1 4 3 -2 6 -13 5 -11 0 -14 -3 -6 -6z"/>
<path d="M4470 1356 c0 -2 8 -10 18 -17 15 -13 16 -12 3 4 -13 16 -21 21 -21
13z"/>
<path d="M1027 1329 c4 -13 8 -18 11 -10 2 7 -1 18 -6 23 -8 8 -9 4 -5 -13z"/>
<path d="M5641 1328 c-1 -10 3 -18 8 -18 5 0 15 8 22 18 13 15 12 16 -3 4 -13
-10 -17 -10 -21 0 -4 8 -6 7 -6 -4z"/>
<path d="M277 1303 c-11 -11 -8 -51 5 -59 7 -5 8 -3 3 5 -6 10 6 12 52 9 54
-3 59 -1 59 17 0 18 -5 20 -59 17 -41 -3 -57 -1 -53 7 8 12 3 15 -7 4z m91
-30 c-15 -2 -42 -2 -60 0 -18 2 -6 4 27 4 33 0 48 -2 33 -4z"/>
<path d="M4580 1267 c24 -26 45 -47 46 -47 1 0 4 10 7 21 4 17 3 19 -6 10 -8
-8 -21 -2 -52 26 -38 36 -38 36 5 -10z"/>
<path d="M5922 1284 c-7 -7 -13 -17 -15 -21 -1 -5 -6 -7 -11 -5 -5 2 -6 -4 -3
-13 10 -24 -36 -47 -108 -53 l-65 -5 0 -393 0 -394 165 0 165 0 0 60 0 60
-120 0 -121 0 3 118 3 117 93 3 92 3 0 54 0 55 -95 0 -96 0 3 118 3 117 118 3
118 3 -3 57 -3 57 -68 0 c-37 0 -67 1 -67 3 0 2 7 17 16 33 17 34 16 44 -4 23z"/>
<path d="M1021 1235 c-1 -18 4 -20 59 -17 l60 4 -11 -30 c-6 -17 -17 -33 -25
-36 -19 -7 -21 -336 -2 -336 9 0 9 -3 0 -12 -9 -9 -12 -69 -12 -210 l0 -198
50 0 50 0 0 252 c0 225 2 254 18 271 9 11 12 17 5 13 -18 -10 -23 21 -26 164
-2 112 -4 125 -20 125 -10 0 -22 7 -27 15 -6 10 -10 11 -10 3 0 -9 -17 -13
-49 -13 -30 0 -51 5 -54 13 -3 6 -6 3 -6 -8z m119 -390 c-7 -8 -16 -15 -21
-15 -5 0 -9 7 -9 15 0 9 9 15 21 15 18 0 19 -2 9 -15z"/>
<path d="M1058 1243 c12 -2 32 -2 45 0 12 2 2 4 -23 4 -25 0 -35 -2 -22 -4z"/>
<path d="M1310 815 l0 -415 40 0 40 0 2 288 3 287 145 -287 145 -288 37 0 38
0 0 409 c0 226 -3 412 -7 414 -5 2 -25 2 -46 -1 l-38 -4 3 -279 c2 -154 1
-279 -2 -279 -3 0 -66 122 -140 271 -74 149 -144 277 -155 285 -11 8 -30 14
-42 14 l-23 0 0 -415z"/>
<path d="M1827 1223 c-4 -3 -7 -33 -7 -65 l0 -58 80 0 80 0 0 -350 0 -350 50
0 50 0 0 350 0 350 80 0 80 0 0 65 0 65 -203 0 c-112 0 -207 -3 -210 -7z"/>
<path d="M2307 1224 c-4 -4 -7 -191 -7 -416 l0 -408 170 0 171 0 -3 57 -3 58
-117 3 -118 3 0 119 0 120 95 0 95 0 0 55 0 55 -95 0 -95 0 0 120 0 120 120 0
121 0 -3 58 -3 57 -161 3 c-88 1 -163 -1 -167 -4z"/>
<path d="M2725 1222 c-2 -3 -5 -189 -5 -413 l0 -409 155 0 155 0 0 60 0 60
-105 0 -105 0 0 354 0 353 -45 0 c-24 0 -47 -2 -50 -5z"/>
<path d="M3110 1223 c0 -5 -2 -191 -3 -415 l-2 -408 153 0 152 0 0 60 0 60
-105 0 -105 0 0 355 0 355 -45 0 c-25 0 -45 -3 -45 -7z"/>
<path d="M3500 813 l0 -413 45 0 45 0 0 413 0 412 -45 0 -45 0 0 -412z"/>
<path d="M3865 1213 c-116 -60 -176 -197 -176 -398 0 -260 102 -424 265 -425
67 0 120 18 161 54 l35 31 2 168 c2 100 -1 168 -7 170 -5 2 1 20 13 40 12 20
18 37 13 37 -5 0 -14 -13 -21 -30 -7 -16 -17 -34 -24 -39 -6 -5 -79 -12 -161
-15 -174 -6 -206 -14 -197 -48 5 -18 7 -19 10 -6 2 10 9 15 18 11 8 -3 14 -1
14 5 0 15 48 24 70 12 28 -15 25 -33 -5 -28 -13 3 -22 1 -19 -4 3 -5 22 -7 43
-4 20 3 42 5 49 6 6 0 12 7 12 15 0 8 4 15 10 15 5 0 8 -16 6 -36 -1 -19 1
-37 5 -40 4 -2 5 -13 2 -24 -4 -14 0 -20 12 -20 14 0 15 3 6 14 -9 11 -8 15 5
20 28 11 46 7 41 -8 -3 -8 1 -20 9 -27 10 -8 13 -22 9 -38 l-6 -26 19 23 c18
23 18 23 36 3 20 -22 15 -37 -17 -52 -12 -5 -38 -21 -57 -35 -28 -20 -44 -24
-85 -22 l-50 3 -6 40 c-6 39 -6 39 -8 7 -1 -30 -4 -33 -28 -30 -25 3 -29 10
-53 89 -14 47 -33 94 -42 103 -9 9 -19 38 -23 64 -3 26 -10 61 -14 77 -5 17
-12 48 -16 70 -5 35 -3 44 17 60 l23 20 -18 -21 c-24 -29 -10 -38 17 -10 11
12 15 15 9 6 -7 -9 -12 -27 -12 -41 1 -20 2 -21 6 -4 6 26 32 55 46 52 6 -1
14 14 17 32 4 26 14 40 39 55 34 20 35 20 26 0 -5 -10 -9 -34 -9 -53 l-1 -35
62 -4 63 -4 17 36 c21 46 33 46 33 1 0 -41 23 -55 90 -55 35 0 39 3 54 40 9
22 16 56 16 75 0 30 -4 36 -27 41 -16 4 -44 21 -63 39 -64 60 -141 84 -154 49
-3 -9 -6 -31 -6 -50 0 -24 -5 -34 -15 -34 -19 0 -19 27 0 63 8 15 10 25 5 22
-5 -3 -11 -1 -15 5 -9 14 -35 12 -70 -7z m165 -108 c0 -3 -12 -23 -26 -45 -27
-40 -60 -52 -91 -32 -17 11 -3 63 19 71 25 9 98 14 98 6z m160 -7 c0 -7 -7
-31 -14 -53 -13 -36 -18 -40 -51 -43 -41 -4 -59 11 -46 37 5 9 6 23 4 31 -4
13 -3 13 6 0 9 -13 13 -13 28 4 10 10 12 16 6 12 -7 -4 -13 -3 -13 3 0 8 18
14 68 20 6 0 12 -5 12 -11z"/>
<path d="M4250 1145 c0 -46 5 -87 10 -90 14 -8 13 -58 -2 -73 -7 -7 -10 -39
-9 -83 2 -57 9 -84 34 -135 34 -69 29 -95 -9 -51 l-24 28 0 -40 c0 -23 2 -41
5 -41 3 0 22 7 41 15 33 13 35 13 32 -3 -2 -9 -20 -28 -41 -41 l-37 -24 0
-104 0 -103 165 0 165 0 0 60 0 60 -120 0 -121 0 3 118 3 117 93 3 92 3 0 54
0 55 -95 0 -96 0 3 118 3 117 118 3 117 3 0 60 0 60 -165 -1 -165 -2 0 -83z"/>
<path d="M5030 1150 l0 -75 40 -33 40 -33 0 108 0 108 -40 0 -40 0 0 -75z"/>
<path d="M5375 1213 c-73 -38 -126 -112 -158 -219 l-15 -50 57 -30 c31 -16 60
-28 64 -26 15 5 2 -21 -16 -32 -11 -7 -31 -5 -68 6 l-52 17 6 -97 c10 -152 45
-261 106 -325 87 -94 237 -87 310 14 l31 42 -22 36 c-12 20 -23 38 -25 40 -2
3 -18 -10 -37 -28 -99 -96 -219 -32 -255 137 -18 86 -15 126 11 137 31 14 35
45 8 65 -20 15 -21 20 -11 57 13 48 47 99 81 124 38 28 78 31 128 9 37 -17 44
-24 40 -43 -4 -23 -3 -23 22 -10 15 7 35 31 45 54 l19 41 -51 49 c-52 49 -52
49 -120 49 -42 -1 -80 -7 -98 -17z"/>
<path d="M723 1213 c9 -2 23 -2 30 0 6 3 -1 5 -18 5 -16 0 -22 -2 -12 -5z"/>
<path d="M774 1202 c-9 -5 -8 -10 1 -19 11 -10 13 -9 12 7 -1 11 -1 20 -2 20
0 0 -5 -4 -11 -8z"/>
<path d="M615 1180 c-10 -11 -13 -20 -8 -20 6 0 14 7 17 16 3 8 10 12 16 9 5
-3 10 -1 10 4 0 17 -15 13 -35 -9z"/>
<path d="M719 1187 c7 -7 14 -8 21 -1 6 6 2 10 -12 11 -16 2 -18 -1 -9 -10z"/>
<path d="M4670 796 l0 -396 40 0 40 0 1 288 0 287 145 -287 144 -288 35 0 35
0 0 260 0 260 -40 20 -39 20 -3 -152 -3 -153 -125 247 -124 247 -46 18 c-25
10 -48 20 -52 21 -5 2 -8 -174 -8 -392z"/>
<path d="M671 1152 c-7 -13 -6 -23 1 -30 9 -9 7 -12 -10 -12 -12 0 -22 4 -22
9 0 4 -12 6 -26 3 -14 -2 -29 0 -33 7 -5 8 -12 7 -25 -2 -24 -17 -25 -17 154
-23 146 -5 195 3 160 26 -8 5 -22 9 -30 9 -10 0 -8 -3 5 -9 17 -8 16 -8 -7 -7
-16 1 -28 4 -28 8 0 12 27 29 35 21 5 -4 5 -1 1 6 -6 11 -13 10 -32 -3 -17
-11 -29 -13 -42 -6 -14 7 -19 6 -19 -3 0 -7 7 -13 15 -12 8 1 17 -5 19 -11 3
-9 -10 -13 -46 -13 -51 0 -61 6 -40 27 12 12 4 33 -11 33 -5 0 -14 -8 -19 -18z
m24 -11 c-3 -6 -11 -11 -17 -11 -6 0 -6 6 2 15 14 17 26 13 15 -4z"/>
<path d="M4866 1151 c-19 -20 -13 -45 17 -70 12 -10 14 -4 9 36 -2 27 -6 49
-7 51 -1 1 -10 -7 -19 -17z"/>
<path d="M510 1095 c-11 -13 -11 -18 0 -28 10 -9 11 -9 6 1 -4 7 -2 19 4 27 7
8 10 15 7 15 -2 0 -10 -7 -17 -15z"/>
<path d="M932 1050 c0 -14 2 -19 5 -12 2 6 2 18 0 25 -3 6 -5 1 -5 -13z"/>
<path d="M909 993 c-13 -16 -12 -17 4 -4 9 7 17 15 17 17 0 8 -8 3 -21 -13z"/>
<path d="M5474 945 c-29 -23 -57 -44 -64 -47 -7 -2 -11 -9 -9 -16 4 -13 84 47
113 86 23 29 20 28 -40 -23z"/>
<path d="M3776 968 c-11 -34 -13 -58 -7 -58 13 0 31 24 31 41 0 22 -19 35 -24
17z"/>
<path d="M4034 965 c-9 -22 1 -29 15 -11 8 10 9 16 1 21 -5 3 -13 -1 -16 -10z"/>
<path d="M228 945 c-8 -8 43 -84 56 -85 4 0 6 11 4 25 -4 17 0 29 11 35 9 5
12 10 7 10 -5 0 -18 -7 -28 -17 -10 -9 -18 -12 -18 -6 0 15 -25 45 -32 38z"/>
<path d="M673 908 c31 -7 63 -7 95 0 44 9 40 10 -48 10 -88 0 -92 -1 -47 -10z"/>
<path d="M3955 910 c-3 -6 2 -13 12 -17 26 -10 114 -10 138 1 l20 8 -20 8
c-29 12 -143 12 -150 0z"/>
<path d="M326 896 c4 -11 2 -21 -7 -27 -10 -6 -11 -9 -1 -9 18 0 27 29 13 43
-9 9 -11 8 -5 -7z"/>
<path d="M539 888 c0 -7 -2 -20 -4 -29 -1 -8 6 -26 16 -40 l19 -24 -11 33 c-6
18 -9 41 -6 52 3 11 1 20 -4 20 -5 0 -9 -6 -10 -12z"/>
<path d="M844 855 c-7 -49 -3 -62 16 -50 7 4 9 18 6 31 -4 14 -2 24 4 24 5 0
10 5 10 11 0 5 -5 7 -12 3 -8 -5 -9 -2 -5 9 3 10 2 17 -3 17 -5 0 -12 -20 -16
-45z"/>
<path d="M3766 887 c-15 -11 -15 -16 -3 -52 l14 -40 5 50 c2 28 4 51 3 52 -1
2 -9 -3 -19 -10z"/>
<path d="M446 725 c-3 -8 -1 -15 4 -15 6 0 10 7 10 15 0 8 -2 15 -4 15 -2 0
-6 -7 -10 -15z"/>
<path d="M970 715 c0 -8 4 -15 10 -15 5 0 7 7 4 15 -4 8 -8 15 -10 15 -2 0 -4
-7 -4 -15z"/>
<path d="M3867 650 c5 -78 13 -122 13 -72 0 14 6 22 18 22 16 1 16 1 0 14 -19
14 -24 36 -9 36 5 0 12 -6 14 -12 3 -8 6 -7 6 4 1 9 -4 20 -9 23 -6 4 -4 12 6
22 12 13 13 17 2 24 -22 14 -28 10 -29 -18 -2 -25 -2 -25 -9 7 -5 21 -6 1 -3
-50z"/>
<path d="M3970 635 c0 -8 4 -15 10 -15 5 0 7 7 4 15 -4 8 -8 15 -10 15 -2 0
-4 -7 -4 -15z"/>
<path d="M3960 594 c0 -11 -3 -29 -6 -41 -4 -15 -2 -23 6 -23 7 0 10 7 6 15
-3 8 -1 15 3 15 16 0 20 28 5 40 -11 10 -14 9 -14 -6z"/>
<path d="M572 421 c-23 -14 25 -21 158 -21 133 0 181 7 158 21 -17 11 -299 11
-316 0z"/>
<path d="M3866 361 c-35 -13 7 -21 117 -21 107 0 155 12 97 24 -44 8 -190 6
-214 -3z"/>
</g>
</svg>
