<?xml version="1.0" standalone="no"?>
<!DOCTYPE svg PUBLIC "-//W3C//DTD SVG 20010904//EN"
 "http://www.w3.org/TR/2001/REC-SVG-20010904/DTD/svg10.dtd">
<svg version="1.0" xmlns="http://www.w3.org/2000/svg"
 width="640.000000pt" height="360.000000pt" viewBox="0 0 640.000000 360.000000"
 preserveAspectRatio="xMidYMid meet">

<g transform="translate(0.000000,360.000000) scale(0.100000,-0.100000)"
fill="#000000" stroke="none">
<path d="M0 1800 l0 -1800 581 0 c512 0 580 2 575 15 -3 8 -1 15 4 15 6 0 10
-7 10 -15 0 -13 29 -15 205 -15 160 0 205 3 203 12 -2 7 2 13 7 13 5 0 9 -5 7
-11 -1 -7 17 -11 49 -11 29 -1 47 2 41 6 -6 4 -10 15 -10 26 2 22 -100 256
-116 267 -20 13 -51 -18 -52 -51 -1 -17 3 -31 9 -31 5 0 6 -7 3 -16 -3 -8 -2
-12 4 -9 6 3 10 -5 10 -19 0 -14 5 -28 10 -31 10 -6 40 -70 40 -86 0 -13 -34
-11 -48 3 -7 7 -12 9 -12 6 0 -3 -17 0 -37 7 l-38 13 -10 -36 c-6 -21 -17 -37
-25 -37 -8 0 -14 6 -13 13 2 6 -2 12 -7 12 -15 0 -12 14 8 36 20 23 26 50 12
59 -6 3 -7 0 -4 -9 8 -20 5 -20 -35 0 -19 9 -42 13 -56 10 -20 -5 -25 -2 -25
11 0 16 -2 16 -11 3 -8 -11 -9 -5 -4 25 4 22 8 40 8 40 1 1 15 6 30 13 24 10
36 8 89 -13 71 -29 88 -31 88 -10 0 8 -5 15 -10 15 -6 0 -44 16 -84 35 -41 19
-79 35 -86 35 -6 0 -8 5 -4 11 4 7 0 9 -13 5 -11 -4 -33 -2 -48 4 -21 8 -30 7
-39 -3 -44 -50 -86 -56 -86 -12 0 31 35 72 78 93 23 11 36 25 39 41 9 60 92
121 166 121 52 0 114 -27 138 -61 17 -24 18 -29 5 -29 -10 0 -13 -6 -9 -17 9
-26 23 -32 53 -26 64 12 190 -50 171 -86 -7 -13 0 -35 26 -87 46 -89 73 -169
73 -211 l0 -33 2270 0 2270 0 0 1800 0 1800 -823 0 c-809 0 -824 0 -845 -20
-22 -21 -44 -28 -24 -8 7 7 12 16 12 20 0 4 -898 8 -1996 8 l-1996 0 8 -37
c14 -61 10 -118 -9 -144 -64 -89 -86 -114 -102 -118 -31 -6 -127 32 -143 58
-18 27 -26 78 -27 174 l0 67 -227 0 -228 0 0 -1800z m5399 1691 c19 -4 37 -13
39 -20 4 -13 -53 -11 -196 9 -31 4 -67 4 -79 -1 -17 -6 -23 -5 -23 5 0 7 3 16
7 20 8 8 196 -2 252 -13z m181 -66 c0 -8 -4 -15 -9 -15 -13 0 -22 16 -14 24
11 11 23 6 23 -9z m-916 -67 c-3 -7 -16 -21 -30 -32 l-26 -18 16 31 c15 29 51
46 40 19z m779 -45 c5 -3 5 -9 0 -13 -9 -9 -232 15 -242 26 -7 8 229 -5 242
-13z m-3943 -33 c51 -17 58 -17 114 -3 168 43 335 -55 377 -220 9 -36 25 -61
64 -100 120 -121 114 -299 -15 -408 -38 -32 -49 -48 -54 -82 -27 -166 -236
-273 -406 -208 -45 17 -53 18 -92 4 -28 -10 -69 -14 -118 -11 -92 4 -170 38
-232 103 -24 25 -45 45 -48 45 -11 0 -9 -114 2 -121 14 -9 48 11 48 28 0 19
17 16 24 -4 6 -15 -8 -32 -26 -33 -17 0 -118 -66 -118 -76 0 -7 12 -17 28 -22
22 -7 38 -4 87 21 33 16 67 35 75 43 31 27 55 -22 39 -79 -10 -38 -61 -94 -96
-108 -13 -5 -39 -9 -57 -9 -19 0 -55 -12 -81 -26 -39 -22 -55 -26 -96 -21 -55
7 -100 34 -125 75 -8 15 -33 35 -55 45 -41 20 -79 76 -79 117 0 25 23 72 44
89 10 9 12 19 7 34 -25 68 69 167 159 167 17 0 48 9 70 20 40 21 70 26 70 12
0 -4 -10 -12 -22 -17 -12 -6 -23 -14 -25 -20 -3 -11 103 -72 111 -64 3 2 2 24
-1 47 -5 35 -14 49 -50 79 -24 20 -54 55 -65 77 -22 44 -34 135 -24 189 9 49
61 123 112 158 32 22 44 37 44 55 0 14 9 42 20 63 75 148 236 214 390 161z
m3724 -205 c-18 -28 -59 -33 -89 -11 -17 12 -17 13 9 20 15 4 31 4 36 1 4 -3
19 -1 32 4 12 6 24 10 26 10 1 1 -5 -10 -14 -24z m-74 -114 c-25 -47 -48 -53
-156 -36 -117 17 -171 32 -180 47 -8 12 35 9 191 -15 89 -14 90 -14 120 9 34
26 41 25 25 -5z m-1481 -83 c0 -61 -13 -42 -21 34 -5 40 -3 45 8 33 9 -8 14
-34 13 -67z m-262 -20 c-3 -22 -4 -21 -11 4 -5 16 -5 36 0 45 7 16 8 15 11 -4
3 -13 3 -33 0 -45z m201 37 c-3 -3 -9 2 -12 12 -6 14 -5 15 5 6 7 -7 10 -15 7
-18z m129 -62 c-3 -10 -5 -4 -5 12 0 17 2 24 5 18 2 -7 2 -21 0 -30z m-529 12
c34 -8 80 -24 102 -35 47 -24 60 -25 60 -6 0 8 5 18 11 22 7 4 10 -3 7 -19 -3
-24 25 -67 44 -67 4 0 8 15 8 34 0 19 5 38 10 41 6 4 10 -14 10 -47 0 -30 5
-59 11 -65 6 -6 43 -9 98 -5 77 4 98 1 169 -22 149 -50 254 -138 325 -274 60
-114 81 -250 58 -372 -8 -40 -6 -48 21 -87 41 -61 74 -139 88 -211 16 -81 8
-213 -17 -283 -12 -34 -17 -62 -12 -70 10 -16 -8 -40 -24 -33 -7 2 -20 -10
-30 -28 -26 -49 -97 -118 -161 -158 -53 -33 -68 -50 -46 -50 6 0 10 -5 10 -12
0 -7 -7 -5 -18 5 -16 15 -22 15 -68 1 -37 -11 -55 -22 -65 -42 -8 -15 -16 -29
-20 -32 -3 -3 -15 -22 -28 -42 -30 -50 -91 -100 -106 -88 -7 6 -15 7 -19 3 -4
-4 -11 -2 -15 6 -6 10 -12 9 -26 -6 -18 -17 -19 -17 -12 1 6 14 4 17 -9 12 -8
-3 -25 -6 -35 -6 -11 0 -17 -4 -14 -10 4 -7 -3 -7 -20 0 -15 6 -32 7 -38 3
-20 -12 -38 -15 -144 -19 -74 -3 -111 0 -137 11 -41 17 -69 20 -46 5 11 -7 5
-8 -20 -4 -19 4 -41 11 -47 17 -7 5 -13 6 -13 1 0 -5 -29 -8 -65 -8 -45 1 -65
-2 -62 -10 3 -6 11 -9 18 -8 8 2 11 0 7 -4 -4 -4 -2 -14 5 -22 10 -13 9 -14
-10 -3 -13 6 -25 22 -29 35 -5 23 -8 24 -77 19 -93 -7 -90 -7 -176 6 -90 14
-139 35 -213 92 -95 72 -161 172 -194 294 -16 57 -18 191 -4 250 8 36 6 45
-29 100 -69 109 -85 165 -85 295 -1 86 4 128 17 167 52 150 150 263 287 332
45 22 90 41 99 41 10 0 27 24 45 63 37 79 156 199 242 245 114 59 255 77 382
47z m402 5 c0 -5 -2 -10 -4 -10 -3 0 -8 5 -11 10 -3 6 -1 10 4 10 6 0 11 -4
11 -10z m-96 -26 c3 -9 6 -34 6 -57 0 -55 -17 -35 -22 26 -3 47 4 62 16 31z
m106 -15 c0 -5 -4 -9 -10 -9 -5 0 -10 7 -10 16 0 8 5 12 10 9 6 -3 10 -10 10
-16z m1884 -10 c-28 -31 -88 -59 -129 -59 -51 0 -43 17 16 29 27 6 66 22 86
36 42 28 55 25 27 -6z m-1784 -39 c0 -22 -4 -40 -9 -40 -4 0 -6 11 -3 25 3 16
0 25 -8 25 -10 0 -10 3 0 15 18 22 20 19 20 -25z m1480 15 c-32 -39 -105 -55
-167 -39 -41 11 -24 21 45 26 37 3 81 12 97 21 34 18 44 15 25 -8z m-1620 -5
c0 -5 -2 -10 -4 -10 -3 0 -8 5 -11 10 -3 6 -1 10 4 10 6 0 11 -4 11 -10z
m2194 -349 c23 -10 54 -22 69 -25 37 -9 75 -47 82 -83 3 -15 12 -50 20 -76 9
-33 11 -58 4 -79 -9 -32 -128 -157 -152 -159 -29 -3 -64 4 -89 17 -15 8 -37
14 -50 14 -46 1 -88 53 -88 112 0 18 -7 42 -15 52 -34 44 -18 81 75 177 74 76
83 79 144 50z m-490 -491 c-7 -6 -24 22 -23 40 0 9 6 5 14 -10 7 -14 11 -27 9
-30z m206 35 c0 -8 -7 -15 -15 -15 -8 0 -15 7 -15 15 0 8 7 15 15 15 8 0 15
-7 15 -15z m-342 -58 l-3 -22 -13 22 c-6 12 -9 29 -5 38 5 16 7 16 15 1 5 -9
8 -27 6 -39z m44 -88 c4 -23 1 -29 -11 -27 -11 2 -17 16 -18 42 -2 31 0 36 11
27 8 -7 16 -25 18 -42z m278 -11 c0 -5 -4 -8 -10 -8 -5 0 -10 10 -10 23 0 18
2 19 10 7 5 -8 10 -18 10 -22z m-1183 -150 c-3 -8 -6 -5 -6 6 -1 11 2 17 5 13
3 -3 4 -12 1 -19z m-1 -28 c14 -17 26 -156 17 -202 -3 -15 -10 -28 -16 -28 -6
0 -19 -7 -29 -17 -10 -9 -18 -12 -18 -6 0 5 9 18 20 28 21 19 22 25 5 220 -2
28 -1 43 2 35 3 -8 12 -22 19 -30z m164 -174 c0 -36 -21 -96 -33 -96 -5 0 -7
10 -3 23 3 12 6 49 6 81 0 55 1 58 15 40 8 -10 15 -32 15 -48z m-30 -186 c0
-31 -18 -80 -30 -80 -7 0 -3 74 5 98 8 23 25 12 25 -18z m-3335 -20 c16 -7 12
-9 -19 -9 -52 -1 -119 -34 -154 -76 -16 -20 -41 -36 -62 -40 -19 -4 -51 -16
-71 -26 -95 -48 -170 -211 -139 -303 10 -30 9 -44 -6 -83 -10 -26 -18 -71 -18
-100 0 -40 -3 -49 -10 -35 -17 28 -12 133 8 174 15 32 16 42 6 74 -41 123 58
279 196 308 17 4 52 27 78 51 60 58 143 86 191 65z m3085 -150 c0 -5 -5 -10
-11 -10 -5 0 -7 5 -4 10 3 6 8 10 11 10 2 0 4 -4 4 -10z m997 -12 c-26 -21
-47 -83 -47 -144 0 -47 -2 -55 -14 -45 -20 17 -27 63 -15 107 11 39 58 94 80
94 8 0 7 -4 -4 -12z m-1147 -13 c0 -12 -19 -12 -23 0 -4 9 -1 12 9 8 7 -3 14
-7 14 -8z m1598 -32 c6 -16 15 -64 20 -108 9 -74 8 -82 -11 -100 -18 -19 -19
-19 -13 -1 6 17 -8 163 -21 214 -8 31 12 27 25 -5z m-1518 13 c0 -2 -7 -7 -16
-10 -8 -3 -12 -2 -9 4 6 10 25 14 25 6z m-3294 -121 c-33 -30 -64 -55 -70 -55
-6 1 16 25 49 55 33 30 64 55 70 55 5 -1 -17 -25 -49 -55z m408 -36 c5 -27 2
-40 -9 -49 -20 -17 -32 -5 -15 15 8 10 10 30 6 58 -7 50 8 30 18 -24z m146 -6
c0 -46 -1 -47 -97 -139 -54 -51 -100 -90 -103 -87 -3 2 30 38 73 79 74 71 116
135 117 177 0 9 2 17 5 17 3 0 5 -21 5 -47z m4425 -47 c-6 -38 -5 -38 22 -32
15 4 56 10 90 13 67 6 73 2 145 -82 9 -11 32 -34 51 -52 51 -46 58 -131 14
-182 -8 -9 -17 -35 -20 -58 -9 -77 -72 -133 -150 -133 -19 0 -52 -7 -73 -16
-58 -24 -116 -12 -151 32 -15 20 -47 54 -70 77 -39 40 -73 94 -73 117 0 5 11
33 25 62 14 28 25 63 25 76 0 38 37 90 86 118 46 27 63 67 50 117 -8 35 5 41
21 9 10 -17 12 -41 8 -66z m-4937 -41 c-83 -80 -104 -97 -96 -76 4 11 169 161
177 161 3 0 -33 -39 -81 -85z m4266 53 c-16 -43 -9 -171 10 -201 14 -21 15
-26 4 -22 -8 3 -25 25 -38 48 -30 52 -33 131 -7 170 22 33 43 37 31 5z m430
-43 c7 -24 -8 -50 -23 -41 -12 8 -14 36 -5 61 7 18 19 10 28 -20z m-304 -42
c7 -88 5 -143 -5 -145 -11 -3 -29 166 -21 189 10 26 22 5 26 -44z m123 -76 c4
-70 -3 -98 -16 -63 -11 27 -19 155 -12 173 6 16 8 15 15 -8 4 -14 10 -60 13
-102z m-4280 36 c-48 -41 -60 -42 -31 -3 12 17 25 30 30 30 4 0 8 10 8 23 1
22 1 22 16 2 14 -19 13 -22 -23 -52z m257 -79 c0 -51 -133 -160 -154 -126 -3
5 7 12 22 15 33 7 85 57 102 98 13 31 30 39 30 13z m-994 -141 c6 -21 9 -54 7
-73 -4 -28 2 -44 26 -77 17 -24 31 -47 31 -52 0 -36 -62 -11 -91 36 -15 24
-19 41 -14 64 4 17 2 43 -5 60 -10 24 -10 33 4 54 22 34 29 32 42 -12z m4934
21 c0 -8 -5 -12 -10 -9 -6 4 -8 11 -5 16 9 14 15 11 15 -7z m-4815 -74 c3 -5
1 -10 -4 -10 -6 0 -11 5 -11 10 0 6 2 10 4 10 3 0 8 -4 11 -10z m119 -14 c-3
-9 -10 -16 -15 -16 -6 0 -5 9 1 21 13 24 24 20 14 -5z m506 -1 c0 -8 -59 -35
-77 -35 -10 0 0 9 22 19 42 20 55 24 55 16z m-356 -100 c17 -17 11 -45 -9 -45
-13 0 -27 45 -17 55 8 7 9 7 26 -10z m195 -19 c24 -39 27 -56 7 -56 -13 0 -56
61 -56 81 0 21 30 7 49 -25z m-100 -90 c0 -17 -5 -40 -10 -51 -6 -14 -7 -6 -3
26 4 29 2 49 -5 53 -6 4 -11 12 -11 18 0 7 6 6 15 -2 8 -7 15 -27 14 -44z
m133 -47 c6 -42 -15 -36 -35 9 -24 55 -22 70 7 43 13 -12 26 -36 28 -52z
m-392 1 c-34 -22 -75 15 -50 45 12 15 16 14 39 -10 22 -22 24 -27 11 -35z"/>
<path d="M1285 3181 c-62 -35 -95 -89 -95 -155 0 -48 71 -272 93 -292 18 -17
67 -27 67 -14 0 6 -19 72 -42 146 l-42 135 97 96 c53 52 95 99 91 104 -3 5
-31 9 -62 9 -44 0 -68 -7 -107 -29z"/>
<path d="M1630 3191 c-53 -16 -88 -42 -173 -128 l-88 -89 7 -42 c4 -23 10 -42
13 -42 4 0 53 44 110 98 57 53 111 101 121 105 11 6 57 -1 124 -17 59 -14 116
-26 127 -26 19 0 19 1 0 39 -45 87 -147 130 -241 102z"/>
<path d="M1605 2985 c-19 -16 -26 -28 -20 -34 6 -5 73 -23 150 -41 77 -17 145
-37 151 -43 6 -7 28 -61 49 -122 20 -60 41 -114 45 -118 14 -15 53 54 58 102
6 64 -29 153 -73 187 -23 17 -77 36 -172 59 -76 19 -142 35 -148 35 -5 -1 -23
-12 -40 -25z"/>
<path d="M1072 2907 c-66 -71 -62 -175 12 -255 34 -38 73 -54 221 -88 l140
-33 33 32 c40 39 48 35 -143 78 -77 17 -145 38 -152 46 -6 8 -26 66 -44 129
-18 63 -36 114 -39 114 -4 0 -16 -10 -28 -23z"/>
<path d="M1462 2839 c-24 -23 -42 -44 -40 -48 2 -3 11 -27 22 -53 20 -52 25
-55 93 -63 45 -6 50 -5 82 29 l34 35 -14 57 -14 58 -50 13 c-68 17 -65 18
-113 -28z"/>
<path d="M1730 2817 c0 -7 18 -67 40 -132 22 -65 40 -126 40 -134 0 -9 -44
-59 -97 -113 -108 -108 -108 -114 -4 -106 142 10 213 128 166 276 -8 26 -24
80 -36 121 -19 65 -25 75 -55 87 -41 17 -54 18 -54 1z"/>
<path d="M1580 2554 c-55 -54 -107 -102 -114 -106 -8 -5 -72 5 -146 22 -72 17
-135 28 -140 25 -18 -11 1 -32 39 -43 27 -9 43 -22 59 -51 31 -55 45 -63 109
-64 79 0 111 18 226 131 94 93 97 98 91 132 -4 19 -10 39 -15 44 -4 5 -52 -34
-109 -90z"/>
<path d="M815 2482 c-40 -25 -54 -43 -61 -80 -8 -42 11 -42 86 -2 30 17 60 30
65 30 6 -1 39 -18 75 -39 36 -22 68 -37 72 -34 5 2 8 15 8 27 0 18 -16 34 -65
66 -78 51 -134 61 -180 32z"/>
<path d="M820 2365 c-108 -57 -142 -122 -100 -190 34 -55 54 -44 60 34 l5 64
79 41 c81 43 99 61 75 77 -24 15 -52 9 -119 -26z"/>
<path d="M950 2337 c-20 -10 -26 -21 -28 -55 -3 -40 -1 -43 33 -57 53 -23 95
7 95 68 0 48 -49 70 -100 44z"/>
<path d="M842 2279 c-19 -17 -22 -31 -22 -110 0 -85 2 -91 27 -115 33 -30 79
-43 117 -33 62 18 57 30 -31 80 l-53 29 0 80 c0 43 -4 81 -8 84 -5 3 -19 -4
-30 -15z"/>
<path d="M917 2203 c-16 -16 -5 -53 21 -71 50 -35 136 -72 165 -72 57 0 122
73 110 121 -7 25 -16 24 -61 -5 -59 -39 -82 -41 -138 -10 -27 14 -53 30 -58
35 -12 11 -30 12 -39 2z"/>
<path d="M2988 2651 c-118 -38 -198 -106 -244 -205 -30 -65 -32 -84 -38 -361
l-5 -230 64 -40 c35 -22 64 -43 65 -47 0 -5 3 -8 8 -8 4 0 6 127 4 283 -2 274
-2 284 18 310 18 22 180 121 372 226 26 14 48 29 48 33 0 11 -122 47 -180 52
-39 4 -72 0 -112 -13z"/>
<path d="M3448 2477 c-31 -13 -91 -45 -135 -70 -109 -63 -158 -91 -234 -133
l-66 -37 -7 -75 c-3 -41 -5 -77 -3 -78 1 -2 25 11 52 28 28 18 79 48 115 68
36 21 121 69 190 108 69 40 133 72 143 72 11 0 69 -29 131 -64 61 -35 156 -89
210 -120 54 -31 101 -55 102 -53 11 11 -22 141 -48 189 -62 117 -166 180 -308
185 -72 3 -94 0 -142 -20z"/>
<path d="M2442 2213 c-129 -128 -162 -271 -98 -417 35 -79 109 -137 341 -269
l206 -116 65 36 c36 19 62 39 57 44 -4 4 -109 66 -233 137 -186 106 -228 135
-243 163 -17 31 -18 53 -12 262 5 164 4 227 -4 227 -6 0 -42 -30 -79 -67z"/>
<path d="M3400 2125 c-36 -19 -59 -34 -53 -35 7 0 61 -28 120 -63 60 -35 159
-92 221 -127 62 -35 124 -76 137 -92 24 -28 25 -36 26 -166 0 -75 0 -186 -1
-246 -1 -75 2 -106 9 -101 6 3 11 28 11 55 0 51 7 64 29 51 8 -5 9 -11 3 -15
-5 -3 -7 -17 -5 -31 l5 -25 29 21 c37 26 99 137 114 203 9 39 8 68 -3 131 -16
96 -52 165 -110 214 -52 43 -429 261 -451 261 -9 -1 -45 -16 -81 -35z m623
-412 c-7 -3 -13 -11 -13 -19 0 -9 -5 -12 -11 -9 -7 5 -4 14 7 26 9 11 20 16
23 13 3 -4 0 -9 -6 -11z m-47 -24 c4 -8 -1 -9 -15 -4 -13 4 -28 1 -36 -5 -8
-7 -15 -9 -15 -5 0 5 -9 0 -20 -10 -19 -18 -20 -17 -20 5 0 14 5 20 13 17 8
-3 20 -1 28 4 20 12 56 11 65 -2z m-28 -139 c-13 -20 -28 -27 -28 -12 0 10 22
32 32 32 5 0 3 -9 -4 -20z m-38 -19 c0 -5 -9 -11 -20 -14 -11 -3 -20 -1 -20 3
0 5 8 11 18 13 9 3 18 5 20 6 1 0 2 -3 2 -8z m85 -81 c-3 -5 -12 -10 -18 -10
-7 0 -6 4 3 10 19 12 23 12 15 0z"/>
<path d="M3142 1970 c-18 -11 -55 -32 -81 -45 l-48 -26 -6 -82 c-11 -141 -19
-126 88 -182 l94 -50 53 29 c29 16 70 40 91 53 l37 23 0 103 0 102 -85 48
c-47 26 -91 47 -97 47 -7 0 -28 -9 -46 -20z"/>
<path d="M3530 1525 c0 -165 -4 -284 -10 -295 -11 -20 -120 -84 -323 -190 -71
-37 -129 -71 -129 -76 -1 -17 65 -45 120 -50 32 -2 68 -7 82 -9 80 -17 235 49
305 128 82 94 88 123 93 424 l4 262 -56 36 c-94 60 -86 83 -86 -230z"/>
<path d="M3354 1490 c-15 -14 -395 -231 -441 -252 -53 -23 -50 -25 -292 115
-101 59 -188 107 -192 107 -5 0 -9 -26 -8 -57 0 -67 31 -156 70 -199 34 -39
84 -83 74 -65 -5 9 3 7 21 -6 57 -40 124 -58 214 -58 104 1 114 5 376 157
l193 112 3 74 c3 74 -1 89 -18 72z"/>
<path d="M3496 925 c-16 -12 -17 -15 -4 -15 8 0 21 7 28 15 16 19 1 19 -24 0z"/>
<path d="M3095 920 c3 -5 8 -10 11 -10 2 0 4 5 4 10 0 6 -5 10 -11 10 -5 0 -7
-4 -4 -10z"/>
<path d="M5675 2374 c-21 -23 -25 -37 -25 -90 0 -50 3 -64 15 -64 10 0 15 11
16 33 2 54 13 80 43 97 16 8 28 19 27 23 0 4 -1 12 -1 17 0 21 -52 9 -75 -16z"/>
<path d="M5753 2334 c-24 -14 -43 -32 -43 -40 0 -20 16 -18 61 8 38 21 40 21
74 5 45 -22 55 -21 55 1 0 54 -79 67 -147 26z"/>
<path d="M5579 2276 c-19 -40 -3 -74 48 -106 50 -32 68 -36 78 -20 3 6 -8 18
-25 28 -60 33 -63 37 -62 81 2 48 -21 57 -39 17z"/>
<path d="M5797 2283 c-9 -8 12 -33 27 -33 7 0 22 -9 33 -20 17 -15 20 -27 16
-58 -6 -43 8 -62 32 -42 18 15 20 70 3 92 -14 18 -86 68 -98 68 -4 0 -10 -3
-13 -7z"/>
<path d="M5717 2243 c-15 -15 -6 -52 14 -58 28 -9 53 16 44 44 -6 20 -43 29
-58 14z"/>
<path d="M5817 2203 c-4 -3 -7 -28 -7 -54 0 -43 -3 -49 -36 -68 -19 -12 -34
-27 -31 -34 6 -17 47 -11 77 12 21 15 26 28 28 73 2 38 -1 58 -11 66 -8 7 -17
9 -20 5z"/>
<path d="M5732 2129 c-39 -23 -61 -24 -88 -4 -22 17 -54 20 -54 4 0 -22 21
-47 50 -59 27 -11 36 -9 85 15 50 24 68 46 47 59 -5 3 -23 -4 -40 -15z"/>
<path d="M5880 772 c0 -5 18 -23 41 -42 l41 -33 -7 -63 c-4 -43 -3 -64 4 -64
6 0 11 6 12 13 0 6 4 34 8 62 11 62 -2 101 -40 120 -31 17 -59 20 -59 7z"/>
<path d="M5713 716 c-36 -31 -24 -45 15 -17 42 29 66 26 119 -14 47 -36 63
-42 63 -25 0 5 -24 25 -52 45 -63 42 -105 45 -145 11z"/>
<path d="M5760 640 c-8 -5 -10 -10 -5 -10 6 0 17 5 25 10 8 5 11 10 5 10 -5 0
-17 -5 -25 -10z"/>
<path d="M6034 598 c-9 -52 -10 -54 -66 -81 -32 -15 -58 -32 -58 -37 0 -14 3
-13 74 19 71 32 89 55 84 108 -5 56 -24 51 -34 -9z"/>
<path d="M5679 607 c-28 -21 -41 -57 -34 -93 8 -47 25 -43 25 7 0 33 6 47 31
70 25 24 28 29 13 29 -11 0 -26 -6 -35 -13z"/>
<path d="M5830 590 c-25 -25 -25 -32 -1 -54 37 -33 88 19 55 55 -22 24 -29 24
-54 -1z"/>
<path d="M5735 528 c-14 -75 -11 -127 10 -147 22 -22 85 -40 85 -24 0 5 -18
24 -41 42 -40 32 -40 34 -37 91 3 66 -7 90 -17 38z"/>
<path d="M5800 471 c0 -18 113 -91 140 -91 31 0 80 34 80 56 0 18 -1 18 -54
-8 l-45 -22 -54 37 c-56 39 -67 43 -67 28z"/>
<path d="M532 3570 c0 -19 2 -27 5 -17 2 9 2 25 0 35 -3 9 -5 1 -5 -18z"/>
<path d="M578 3593 c7 -3 16 -2 19 1 4 3 -2 6 -13 5 -11 0 -14 -3 -6 -6z"/>
<path d="M636 3582 c-3 -5 8 -19 24 -31 26 -18 30 -28 30 -67 0 -32 4 -44 13
-42 16 6 21 76 6 94 -21 26 -67 55 -73 46z"/>
<path d="M476 3564 c-14 -36 -5 -63 27 -88 45 -35 54 -33 23 5 -15 17 -26 43
-26 59 0 33 -15 48 -24 24z"/>
<path d="M581 3541 c-7 -5 -11 -19 -9 -32 4 -31 42 -33 46 -3 4 25 -19 46 -37
35z"/>
<path d="M648 3494 c-5 -4 -8 -25 -8 -48 0 -27 -7 -47 -21 -62 -13 -14 -19
-29 -15 -40 11 -28 50 6 57 50 7 42 -2 111 -13 100z"/>
<path d="M585 3420 c-19 -21 -50 -26 -60 -10 -9 15 -35 12 -35 -5 0 -23 45
-48 67 -37 29 16 65 59 55 66 -5 3 -17 -3 -27 -14z"/>
<path d="M1340 443 c-23 -8 -60 -45 -60 -59 0 -16 71 -29 80 -14 5 8 31 2 87
-18 44 -17 86 -27 92 -23 14 9 -59 84 -104 105 -33 16 -67 19 -95 9z"/>
<path d="M1610 294 c0 -3 25 -63 55 -132 31 -70 54 -135 51 -144 -3 -16 3 -18
49 -18 62 0 67 7 50 70 -29 105 -70 169 -135 209 -33 20 -70 28 -70 15z"/>
<path d="M1465 100 c3 -5 11 -10 16 -10 6 0 7 5 4 10 -3 6 -11 10 -16 10 -6 0
-7 -4 -4 -10z"/>
</g>
</svg>
